<svg _ngcontent-sxr-c79="" xmlns="http://www.w3.org/2000/svg" width="14" height="14" viewBox="0 0 14 14" fill="none"><path _ngcontent-sxr-c79="" d="M13.7695 12.6696L10.695 9.59401C11.6168 8.39281 12.0472 6.88596 11.8988 5.37913C11.7505 3.8723 11.0344 2.47832 9.89604 1.47997C8.75763 0.481627 7.28207 -0.0463329 5.76869 0.00319419C4.25532 0.0527212 2.81744 0.676026 1.74675 1.74667C0.676058 2.81731 0.0527237 4.25512 0.00319434 5.76843C-0.046335 7.28173 0.481649 8.75722 1.48004 9.89558C2.47844 11.0339 3.87248 11.7499 5.37938 11.8983C6.88628 12.0467 8.3932 11.6163 9.59445 10.6945L12.6715 13.7721C12.7438 13.8443 12.8296 13.9017 12.924 13.9408C13.0184 13.9799 13.1196 14 13.2218 14C13.324 14 13.4252 13.9799 13.5196 13.9408C13.614 13.9017 13.6998 13.8443 13.7721 13.7721C13.8443 13.6998 13.9017 13.614 13.9408 13.5196C13.9799 13.4252 14 13.324 14 13.2218C14 13.1196 13.9799 13.0184 13.9408 12.924C13.9017 12.8296 13.8443 12.7438 13.7721 12.6716L13.7695 12.6696ZM1.5668 5.96878C1.5668 5.09814 1.82499 4.24705 2.30871 3.52313C2.79244 2.79922 3.47998 2.235 4.28439 1.90181C5.0888 1.56863 5.97394 1.48146 6.8279 1.65131C7.68185 1.82117 8.46626 2.24042 9.08193 2.85606C9.6976 3.4717 10.1169 4.25607 10.2867 5.10999C10.4566 5.9639 10.3694 6.84901 10.0362 7.65338C9.70302 8.45775 9.13877 9.14526 8.41482 9.62896C7.69088 10.1127 6.83975 10.3708 5.96906 10.3708C4.80188 10.3696 3.68284 9.90547 2.85752 9.08018C2.03219 8.2549 1.568 7.13591 1.5668 5.96878Z" fill="white"></path></svg>